HIERARCHY
ROOT Hips
{
    OFFSET 0.000000 0.000000 0.000000
    CHANNELS 6 Xposition Yposition Zposition Zrotation Xrotation Yrotation
    JOINT Spine
    {
        OFFSET -0.000000 14.517291 0.000000
        CHANNELS 3 Zrotation Xrotation Yrotation
        JOINT Spine1
        {
            OFFSET -0.000000 37.558300 0.000000
            CHANNELS 3 Zrotation Xrotation Yrotation
            JOINT Neck
            {
                OFFSET -0.000000 37.404057 3.400369
                CHANNELS 3 Zrotation Xrotation Yrotation
                JOINT Head
                {
                    OFFSET -0.000000 24.785618 -3.540803
                    CHANNELS 3 Zrotation Xrotation Yrotation
                    End Site
                    {
                        OFFSET -0.000000 35.408028 0.000000
                    }
                }
            }
            JOINT LeftShoulder
            {
                OFFSET 6.992933 33.973492 -0.192664
                CHANNELS 3 Zrotation Xrotation Yrotation
                JOINT LeftArm
                {
                    OFFSET 21.527611 0.000000 0.000000
                    CHANNELS 3 Zrotation Xrotation Yrotation
                    JOINT LeftForeArm
                    {
                        OFFSET 56.353916 0.000000 0.000000
                        CHANNELS 3 Zrotation Xrotation Yrotation
                        JOINT LeftHand
                        {
                            OFFSET 47.774071 0.000000 0.000000
                            CHANNELS 3 Zrotation Xrotation Yrotation
                            End Site
                            {
                                OFFSET 26.556021 0.000000 0.000000
                            }
                        }
                    }
                }
            }
            JOINT RightShoulder
            {
                OFFSET -7.065357 33.973492 -0.192664
                CHANNELS 3 Zrotation Xrotation Yrotation
                JOINT RightArm
                {
                    OFFSET -21.527611 0.000000 0.000000
                    CHANNELS 3 Zrotation Xrotation Yrotation
                    JOINT RightForeArm
                    {
                        OFFSET -56.353916 0.000000 0.000000
                        CHANNELS 3 Zrotation Xrotation Yrotation
                        JOINT RightHand
                        {
                            OFFSET -47.774071 0.000000 0.000000
                            CHANNELS 3 Zrotation Xrotation Yrotation
                            End Site
                            {
                                OFFSET -26.556021 0.000000 0.000000
                            }
                        }
                    }
                }
            }
        }
    }
    JOINT LeftUpLeg
    {
        OFFSET 17.704014 0.000000 0.000000
        CHANNELS 3 Zrotation Xrotation Yrotation
        JOINT LeftLeg
        {
            OFFSET -0.000000 -81.181816 0.000000
            CHANNELS 3 Zrotation Xrotation Yrotation
            JOINT LeftFoot
            {
                OFFSET -0.000000 -62.821102 0.000000
                CHANNELS 3 Zrotation Xrotation Yrotation
                JOINT LeftToeBase
                {
                    OFFSET -0.000000 -11.507608 26.556021
                    CHANNELS 3 Zrotation Xrotation Yrotation
                    End Site
                    {
                        OFFSET -0.000000 0.000000 7.081605
                    }
                }
            }
        }
    }
    JOINT RightUpLeg
    {
        OFFSET -17.704014 0.000000 0.000000
        CHANNELS 3 Zrotation Xrotation Yrotation
        JOINT RightLeg
        {
            OFFSET -0.000000 -81.181816 0.000000
            CHANNELS 3 Zrotation Xrotation Yrotation
            JOINT RightFoot
            {
                OFFSET -0.000000 -62.821102 0.000000
                CHANNELS 3 Zrotation Xrotation Yrotation
                JOINT RightToeBase
                {
                    OFFSET -0.000000 -11.507608 26.556021
                    CHANNELS 3 Zrotation Xrotation Yrotation
                    End Site
                    {
                        OFFSET -0.000000 0.000000 7.081605
                    }
                }
            }
        }
    }
}
MOTION
Frames:    14
Frame Time:    0.008333
35.778732    159.902267    -96.870255    -2.617520    -0.578336    23.280638    -0.793963    -5.960937    -2.731111    -9.122471    2.674454    -0.680630    17.904430    -1.618305    3.452908    2.224509    1.106916    0.947797    10.370090    6.359609    -13.524180    -38.819237    11.164464    -52.829052    -8.941547    -21.615664    -115.901543    -3.345213    -34.007072    -11.341132    -13.664859    -0.492741    -9.143800    11.523229    8.685587    18.783852    12.034652    18.496264    16.844952    16.082394    17.240395    3.318330    9.697548    5.069771    1.347867    -8.598263    18.739140    -16.936884    4.685435    -22.801720    44.776951    0.000000    0.000000    0.000000    -10.539006    -24.600403    -5.323497    10.293759    24.741140    -12.474054    0.864731    8.769600    -12.490878    0.000000    0.000000    0.000000    
35.789482    159.891647    -96.882339    -2.599120    -0.589442    23.259199    -1.051345    -5.758816    -2.621968    -7.654942    2.406811    -0.693053    15.391539    -1.789810    3.064198    3.547266    1.242706    1.110468    8.532017    6.071169    -13.774524    -37.615158    11.725047    -52.189419    -8.706315    -22.734907    -116.246048    -3.552634    -34.749409    -11.339392    -15.582833    0.214143    -9.879391    12.429276    8.955953    19.552391    11.872045    18.189449    18.009462    16.361595    16.832228    3.232722    9.679231    5.086647    1.365577    -8.600875    18.752169    -16.960312    4.701658    -22.815203    44.798885    0.000000    0.000000    0.000000    -10.550235    -24.591074    -5.322045    10.279988    24.745174    -12.480910    0.877853    8.758897    -12.440667    0.000000    0.000000    0.000000    
35.797951    159.883209    -96.890015    -2.590862    -0.600703    23.239424    -1.060673    -5.767434    -2.619441    -7.558328    2.415664    -0.693455    15.262378    -1.833180    3.070622    3.622728    1.292589    1.141264    8.444579    6.033633    -13.765778    -37.554745    11.739153    -52.180515    -8.684052    -22.789446    -116.213028    -3.689803    -34.745514    -11.473536    -15.607869    0.286337    -9.868305    12.595524    9.353429    19.637178    11.747254    17.936563    18.854362    16.673910    16.549610    3.445296    9.673477    5.102307    1.367042    -8.607566    18.761480    -16.964914    4.722703    -22.824362    44.814404    0.000000    0.000000    0.000000    -10.550941    -24.585138    -5.338310    10.270499    24.755239    -12.469690    0.864818    8.747828    -12.418879    0.000000    0.000000    0.000000    
35.809284    159.877731    -96.900436    -2.584236    -0.609615    23.222366    -0.774390    -5.975891    -2.731588    -9.032238    2.666209    -0.683958    17.813808    -1.641032    3.495470    2.291286    1.159486    1.011450    10.320512    6.276357    -13.500694    -38.706123    11.224330    -52.848175    -8.877162    -21.810177    -115.883469    -3.495323    -34.073860    -11.462448    -13.507617    -0.283964    -9.024303    11.945918    9.813600    18.940172    11.680781    17.828865    19.362598    17.025545    16.494135    4.024651    9.663502    5.115558    1.386475    -8.606943    18.763037    -16.961164    4.746121    -22.818571    44.807247    0.000000    0.000000    0.000000    -10.559483    -24.577816    -5.335441    10.270411    24.754662    -12.459268    0.872042    8.747756    -12.402308    0.000000    0.000000    0.000000    
35.819023    159.872726    -96.909622    -2.577092    -0.620812    23.211338    -0.756685    -5.985977    -2.730597    -9.014586    2.670813    -0.684011    17.769205    -1.637805    3.500245    2.349950    1.150046    1.032416    10.295882    6.262560    -13.486461    -38.654682    11.243917    -52.882637    -8.862869    -21.893206    -115.897812    -3.489739    -34.132557    -11.458224    -13.451210    -0.214391    -8.951674    12.086599    10.099531    18.922964    11.654298    17.721827    20.180450    17.584925    16.345062    4.143279    9.654951    5.128379    1.406155    -8.604494    18.773098    -16.965572    4.747387    -22.833395    44.801834    0.000000    0.000000    0.000000    -10.563897    -24.566500    -5.344332    10.264346    24.750496    -12.486347    0.869016    8.748162    -12.355678    0.000000    0.000000    0.000000    
35.824207    159.870819    -96.923409    -2.575077    -0.629739    23.201591    -0.741558    -6.011487    -2.719498    -8.990483    2.713808    -0.677649    17.730539    -1.662347    3.498402    2.394624    1.127697    1.039497    10.279300    6.214878    -13.467978    -38.640114    11.250141    -52.905003    -8.850830    -21.922544    -115.909615    -3.525720    -34.141582    -11.481559    -13.395035    -0.130261    -8.932525    12.228852    10.308705    18.964714    11.714434    17.679443    20.915285    18.071491    16.267908    4.361455    9.651012    5.138103    1.428937    -8.599239    18.767979    -16.975208    4.750577    -22.834698    44.797001    0.000000    0.000000    0.000000    -10.565214    -24.564781    -5.336493    10.269434    24.752388    -12.487880    0.891963    8.756477    -12.369863    0.000000    0.000000    0.000000    
35.831547    159.869247    -96.937737    -2.570734    -0.632877    23.203394    -0.731331    -6.060726    -2.713049    -8.967133    2.794479    -0.669874    17.689817    -1.676628    3.499860    2.442349    1.062261    1.053258    10.267514    6.164781    -13.446288    -38.968678    10.808299    -52.856060    -9.156534    -21.144861    -115.911339    -3.359022    -33.875977    -11.512991    -13.330449    -0.075847    -8.905334    12.357183    10.556995    18.959366    11.733353    17.628897    21.748617    18.771410    16.165634    4.430400    9.643724    5.134722    1.429931    -8.599063    18.778429    -16.974840    4.753513    -22.843281    44.791191    0.000000    0.000000    0.000000    -10.576164    -24.555050    -5.333467    10.273279    24.733824    -12.500431    0.885451    8.762405    -12.353957    0.000000    0.000000    0.000000    
35.838223    159.866089    -96.951721    -2.562862    -0.636129    23.203619    -0.710713    -6.001191    -2.696276    -8.973019    2.677959    -0.673642    17.701838    -1.648615    3.491338    2.456524    1.040431    1.049154    10.259590    6.175691    -13.448342    -39.053722    10.779045    -52.831276    -9.186576    -21.012590    -115.933395    -3.340236    -33.805595    -11.528671    -13.173878    0.044316    -8.882383    12.425428    10.596701    18.953632    11.951649    17.745831    22.517416    19.282278    16.189640    4.477183    9.631519    5.135586    1.440626    -8.591297    18.783298    -16.984001    4.772251    -22.835432    44.791286    0.000000    0.000000    0.000000    -10.585392    -24.550964    -5.330249    10.269331    24.733643    -12.472199    0.901704    8.761932    -12.386091    0.000000    0.000000    0.000000    
35.839798    159.863602    -96.965256    -2.558924    -0.642132    23.209814    -0.697452    -6.006500    -2.680652    -8.961362    2.701281    -0.667082    17.699022    -1.650546    3.486574    2.464291    0.953166    1.047326    10.263531    6.168472    -13.421425    -39.069454    10.761893    -52.877789    -9.191011    -20.995722    -115.959824    -3.348817    -33.802460    -11.524117    -13.040910    0.116664    -8.900587    12.518847    10.571305    18.968567    12.154510    17.940454    23.274113    19.883698    16.266411    4.340760    9.628237    5.131625    1.435334    -8.591749    18.790329    -16.983957    4.776305    -22.836765    44.790161    0.000000    0.000000    0.000000    -10.592330    -24.542282    -5.337633    10.269539    24.730621    -12.451053    0.906943    8.754589    -12.394252    0.000000    0.000000    0.000000    
35.839371    159.862213    -96.980965    -2.554504    -0.641419    23.219051    -0.690572    -6.008725    -2.664207    -8.938623    2.699765    -0.662350    17.682846    -1.639283    3.490757    2.479695    0.870903    1.059872    10.264080    6.181523    -13.415588    -39.095638    10.732543    -52.899464    -9.182455    -20.981773    -115.987335    -3.368256    -33.783398    -11.521346    -12.913894    0.206877    -8.910531    12.613233    10.452211    18.983112    12.400982    18.189026    24.020729    20.489084    16.363968    4.078626    9.623507    5.118823    1.435046    -8.589482    18.806744    -16.997499    4.784492    -22.837677    44.792873    0.000000    0.000000    0.000000    -10.595865    -24.539331    -5.348650    10.258223    24.718645    -12.460279    0.906132    8.755011    -12.376944    0.000000    0.000000    0.000000    
35.843651    159.863602    -96.991119    -2.544145    -0.649925    23.231846    -0.686114    -6.006880    -2.650713    -8.912342    2.702171    -0.658300    17.672045    -1.618922    3.487759    2.474895    0.783631    1.063012    10.261941    6.185138    -13.419318    -38.740971    11.164313    -52.979626    -8.854900    -21.795279    -116.027977    -3.521380    -34.060558    -11.517334    -12.799010    0.266329    -8.906942    12.737316    10.469219    18.978474    12.514368    18.387642    24.761011    21.007235    16.443521    3.885072    9.616663    5.120478    1.421151    -8.592063    18.814602    -17.006481    4.783275    -22.837633    44.804508    0.000000    0.000000    0.000000    -10.605254    -24.515749    -5.350535    10.257863    24.697359    -12.446045    0.919080    8.751917    -12.403354    0.000000    0.000000    0.000000    
35.842434    159.860733    -97.001617    -2.533111    -0.660385    23.248312    -0.690798    -5.994695    -2.639814    -8.872866    2.703865    -0.655415    17.647356    -1.589927    3.487839    2.481991    0.670921    1.075061    10.258641    6.198198    -13.398917    -38.749630    11.164479    -53.001957    -8.836503    -21.801838    -116.051231    -3.504761    -34.048367    -11.511568    -12.694240    0.286995    -8.914927    12.883870    10.426768    18.982656    12.679760    18.605413    25.434071    21.498068    16.521484    3.620796    9.612784    5.131152    1.402722    -8.591470    18.803129    -17.018511    4.794697    -22.830097    44.804573    0.000000    0.000000    0.000000    -10.611369    -24.497696    -5.345774    10.257901    24.686331    -12.459684    0.892573    8.747492    -12.414141    0.000000    0.000000    0.000000    
35.841518    159.857681    -97.015396    -2.520070    -0.656766    23.262058    -0.701502    -6.003523    -2.628333    -8.830904    2.716938    -0.651308    17.645699    -1.550333    3.497611    2.440135    0.551384    1.088492    10.247290    6.199727    -13.395101    -38.768055    11.143554    -52.984394    -8.858623    -21.758657    -116.086807    -3.494432    -34.049110    -11.512732    -12.601697    0.296005    -8.919346    13.052580    10.448732    18.968977    12.778049    18.713238    26.116344    21.980694    16.531975    3.539611    9.605258    5.123378    1.389320    -8.606126    18.808275    -17.034521    4.813725    -22.822573    44.817162    0.000000    0.000000    0.000000    -10.624561    -24.491978    -5.341508    10.248592    24.676205    -12.454555    0.901710    8.736670    -12.429670    0.000000    0.000000    0.000000    
35.841084    159.854126    -97.028908    -2.507752    -0.654725    23.273201    -0.705274    -6.006245    -2.612315    -8.798006    2.725721    -0.645991    17.640001    -1.539742    3.496991    2.411923    0.475648    1.088143    10.229424    6.205709    -13.384540    -38.753906    11.138844    -52.975853    -8.855698    -21.749887    -116.110138    -3.512162    -34.041676    -11.497786    -12.503201    0.275790    -8.911857    13.218140    10.598014    18.911699    12.791615    18.681316    26.846956    22.564142    16.406488    3.408296    9.593237    5.127805    1.385805    -8.604144    18.790684    -17.044708    4.831121    -22.807682    44.814800    0.000000    0.000000    0.000000    -10.640347    -24.482914    -5.348436    10.247137    24.662340    -12.448433    0.902062    8.726834    -12.438487    0.000000    0.000000    0.000000    
